<?xml version="1.0" encoding="UTF-8"?>
<svg id="Layer_1" xmlns="http://www.w3.org/2000/svg" version="1.1" viewBox="0 0 153 64">
  <!-- Generator: Adobe Illustrator 29.7.1, SVG Export Plug-In . SVG Version: 2.1.1 Build 8)  -->
  <defs>
    <style>
      .st0 {
        fill: #633e24;
      }
    </style>
  </defs>
  <path class="st0" d="M7.98,21.25c.17.51-.28,1.07-1.4,1.11-1.74.07-5.33-.81-5.93-5.81C-.18,9.66,5.27,5.6,5.27,5.6c0,0,5.5-4.96,21.44-3.53,15.94,1.42,16.18,1.76,22.15,2.04,5.12.24,9.59-1.09,11.15-3.36.2-.29.73-.22.91.07.66,1.06,2.05,6.88-2.59,9.75-5.23,3.23-18.29.84-26.1-1.54-.22-.07-.43.1-.43.32l.03,39.55c0,.47-.35.87-.82.93h0c-2.2.29-4.42.31-6.63.04l-.45-.05c-.47-.06-.83-.46-.83-.93l-.13-41c0-.22-.17-.41-.39-.43-1.97-.18-10.86-.74-14.27,3.55-2.97,3.74-1.03,8.22-.36,10.25Z"/>
  <path class="st0" d="M54.63,28.96c-1.61,1.96-4.48,1.98-11.58,4.88-8.85,3.61-5.51,11.6-5.51,11.6,0,0,1.89,5.3,8.93,5.3,5.47,0,8.85-3.9,9.78-5.12.1-.13.31-.09.35.07.54,2.21,1.98,4.66,7.02,4.66,3.79,0,5.12-2.61,5.56-4.02.12-.4-.19-.8-.61-.76-1.93.17-3.05-.74-3.65-1.55-.42-.57-.62-1.27-.62-1.98v-14.14c0-2.03-1.81-9.57-12.56-9.57-12.56,0-12.56,7.65-12.56,7.65,0,0-.11,4.16,3.81,4.2s4.09-4.34,4.09-4.34c0,0-.11-3.98,3.7-3.84,2.55.1,3.44,1.13,4.01,2,.27.41.48.96.56,1.82.21,2.21-.71,3.14-.71,3.14ZM55.58,40.35c-.42,1.9-2.09,4.79-5.38,4.77-3.09-.02-4.31-1.93-4.13-3.75.22-2.27,2.96-5.14,9.23-8.46.24-.13.34-.2.61-.15.1.02.17.12.17.22-.05,2.77-.05,5.37-.5,7.38Z"/>
  <path class="st0" d="M137.87,28.96c-1.61,1.96-4.48,1.98-11.58,4.88-8.85,3.61-5.51,11.6-5.51,11.6,0,0,1.89,5.3,8.93,5.3,5.47,0,8.85-3.9,9.78-5.12.1-.13.31-.09.35.07.54,2.21,1.98,4.66,7.02,4.66,3.79,0,5.12-2.61,5.56-4.02.12-.4-.19-.8-.61-.76-1.93.17-3.05-.74-3.65-1.55-.42-.57-.62-1.27-.62-1.98v-14.14c0-2.03-1.81-9.57-12.56-9.57-12.56,0-12.56,7.65-12.56,7.65,0,0-.11,4.16,3.81,4.2s4.09-4.34,4.09-4.34c0,0-.11-3.98,3.7-3.84,2.55.1,3.44,1.13,4.01,2,.27.41.48.96.56,1.82.21,2.21-.71,3.14-.71,3.14ZM138.83,40.35c-.42,1.9-2.09,4.79-5.38,4.77-3.09-.02-4.31-1.93-4.13-3.75.22-2.27,2.96-5.14,9.23-8.46.24-.13.34-.2.61-.15.1.02.17.12.17.22-.05,2.77-.05,5.37-.5,7.38Z"/>
  <path class="st0" d="M101.11,26.03c-1.57-3.66-4.91-7.71-11.21-7.71-7.76,0-9.89,5.51-9.89,5.51,0,0-.71-5.12-5.87-4.95-3.03.1-5.25,1.98-6.23,2.99-.28.28-.18.75.19.9,1.21.48,3.45,1.65,3.48,3.65.03,2.49,0,30.27,0,35.24,0,.49.3.91.76,1.09,2.31.89,4.87.89,7.18,0,.46-.18.77-.61.77-1.11v-14.55c.01-.13.17-.18.25-.09.72.89,3.19,3.32,8.51,3.34,4.95.03,12.91-2.85,13.55-13.41v-3.39c0-2.59-.47-5.17-1.49-7.54ZM87.09,45.79c-5.23,0-6.98-5.69-6.97-10.39,0-4.24,2.17-11.42,6.94-11.38,4.45.04,6.12,5.94,6.12,10.25s-1.17,11.53-6.08,11.53Z"/>
  <path class="st0" d="M106.07,43.98c0,1.35.34,2.68,1.08,3.81.86,1.31,3.33,2.63,5.91,2.64,3.27,0,5.06-2.15,5.6-3.38.16-.36.07-1.06-.47-1.16-1.79-.33-3.39-1.42-3.39-4.12V8.57c0-1.35-.35-2.68-1.09-3.81-.86-1.31-2.37-2.6-4.95-2.51-3.03.1-5.03,2-6.01,3.01-.28.28-.17.75.19.9,1.21.48,3.1,1.48,3.12,3.47v34.35Z"/>
</svg>